PathFileType	4	(X/Y/Z)	C:\Users\Basilio\Documents\Thesis Gigler\squatting_fais\c3dfiles\076\SLS_back_pre5\markers_experimental.trc
DataRate	CameraRate	NumFrames	NumMarkers	Units	OrigDataRate	OrigDataStartFrame	OrigNumFrames
200.000000	200.000000	4	61	mm	200.000000	1183	1578
Frame#	Time	FHD			LBHD			RBHD			C7			T10			CLAV			LSHO			LUUPA			LMUPA			LDUPA			LLEP			LMEP			LRAD			LUL			LRFIN			RSHO			RUPA1			RMUPA			RDUPA			RLEP			RMEP			RRAD			RUL			RUFIN			LASI			RASI			USACR			LSACR			RSACR			LTHI1			LTHI2			LTHI3			LTHI4			LLFC			LMFC			LTIB1			LTIB2			LTIB3			LTIB4			LLMAL			LMMAL			LHEE			LMT1			LMT2			LMT5			RTHI			RTHI2			RTHI3			RTHI4			RLFC			RMFC			RTIB1			RTIB2			RTIB3			RTIB4			RLMAL			RMMAL			RHEE			RMT1			RMT2			RMT5			
		X1	Y1	Z1	X2	Y2	Z2	X3	Y3	Z3	X4	Y4	Z4	X5	Y5	Z5	X6	Y6	Z6	X7	Y7	Z7	X8	Y8	Z8	X9	Y9	Z9	X10	Y10	Z10	X11	Y11	Z11	X12	Y12	Z12	X13	Y13	Z13	X14	Y14	Z14	X15	Y15	Z15	X16	Y16	Z16	X17	Y17	Z17	X18	Y18	Z18	X19	Y19	Z19	X20	Y20	Z20	X21	Y21	Z21	X22	Y22	Z22	X23	Y23	Z23	X24	Y24	Z24	X25	Y25	Z25	X26	Y26	Z26	X27	Y27	Z27	X28	Y28	Z28	X29	Y29	Z29	X30	Y30	Z30	X31	Y31	Z31	X32	Y32	Z32	X33	Y33	Z33	X34	Y34	Z34	X35	Y35	Z35	X36	Y36	Z36	X37	Y37	Z37	X38	Y38	Z38	X39	Y39	Z39	X40	Y40	Z40	X41	Y41	Z41	X42	Y42	Z42	X43	Y43	Z43	X44	Y44	Z44	X45	Y45	Z45	X46	Y46	Z46	X47	Y47	Z47	X48	Y48	Z48	X49	Y49	Z49	X50	Y50	Z50	X51	Y51	Z51	X52	Y52	Z52	X53	Y53	Z53	X54	Y54	Z54	X55	Y55	Z55	X56	Y56	Z56	X57	Y57	Z57	X58	Y58	Z58	X59	Y59	Z59	X60	Y60	Z60	X61	Y61	Z61	

1184	5.915	-186.4677124023438	1641.459838867188	-1005.449157714844	-309.8029174804688	1571.605346679688	-1122.552612304688	-318.2062072753907	1573.571411132813	-971.3745727539065	-362.0610351562501	1451.826171875	-1053.890258789063	-390.2162170410157	1133.092529296875	-1057.902221679688	-230.5072326660157	1371.955200195313	-1036.682983398438	-277.4739990234376	1388.593505859375	-1223.858642578125	-291.1221313476563	1181.962890625	-1275.6279296875	-264.7575378417969	1154.787475585938	-1243.2958984375	-295.6870422363282	1113.10205078125	-1276.87548828125	-315.3360290527344	1059.743408203125	-1276.275634765625	-361.9362792968751	1057.146484375	-1208.560913085938	-257.3547973632813	825.8745727539065	-1213.33203125	-287.2448120117188	817.296813964844	-1271.236572265625	-249.2332305908204	736.3880615234376	-1212.82421875	-319.0573425292969	1382.093872070313	-874.592224121094	-374.7416992187501	1190.286254882813	-799.1520996093752	-333.2368164062501	1165.842163085938	-788.1029052734377	-374.8558654785157	1120.628540039063	-788.2325439453127	-366.4852905273438	1060.849487304688	-778.4216918945315	-356.5188293457032	1039.13134765625	-857.8447875976565	-294.6412963867188	829.1248779296877	-742.0043334960939	-356.2478027343751	836.5281982421877	-716.0363159179689	-294.1790161132813	761.2747802734376	-695.7490234375001	-219.848129272461	939.7657470703127	-1126.486206054688	-244.8222351074219	965.1125488281252	-912.282653808594	-394.4876098632814	1025.740966796875	-1044.402954101563	-400.4035949707032	994.7517700195315	-1069.049438476563	-409.165740966797	999.4778442382815	-1013.552551269531	-309.6016235351563	782.550720214844	-1180.098876953125	-293.9510498046876	701.9251098632814	-1168.298217773438	-242.4257812500001	700.3518066406251	-1153.828247070313	-329.0272827148438	655.6015014648439	-1151.677978515625	-348.0236511230469	497.2506408691407	-1112.569946289063	-318.3323364257813	499.8917541503907	-996.1225585937502	-318.9038696289063	360.1816101074219	-1030.792602539063	-341.3039855957032	301.1492309570313	-1093.025756835938	-312.4260864257813	307.3458862304688	-1055.741333007813	-326.7602539062501	233.7141723632813	-1016.783325195313	-383.8873596191407	105.8225021362305	-1056.439819335938	-356.1785278320313	122.1526565551758	-978.7860107421877	-441.1776733398439	96.42246246337893	-1007.364501953125	-239.9404296875001	52.07554244995119	-993.7395019531252	-234.853012084961	49.43373107910158	-1032.648803710938	-259.8195495605469	43.77628326416016	-1082.631103515625	-264.7153625488282	736.3798828125001	-808.1390380859377	-209.9700469970704	696.4920654296876	-795.3542480468752	-177.3263397216797	707.6835937500001	-802.4967041015627	-211.5123748779297	613.0675048828126	-797.9878540039065	-203.9009857177735	569.9378051757814	-801.9108886718752	-168.9460754394532	548.7960205078126	-909.818054199219	-273.9775695800782	464.3071289062501	-834.8913574218752	-379.0328063964844	492.5446166992189	-845.905944824219	-359.7156372070313	449.587615966797	-845.7307739257815	-382.1726989746094	414.917449951172	-888.3218994140627	-535.6463012695314	406.8911437988282	-901.9667968750002	-489.446502685547	391.3896789550782	-972.2160644531252	-560.8555297851564	451.9219360351564	-957.2935791015627	-503.0712890625001	254.7278442382813	-968.8203735351565	-512.6528320312501	247.3157653808594	-924.5805664062502	-556.5236816406251	265.0068969726563	-883.3411254882815	
1185	5.92	-186.2826232910157	1641.28173828125	-1005.114196777344	-309.6460571289063	1571.582275390625	-1122.513427734375	-318.2215576171876	1573.64306640625	-971.3593750000002	-362.0946655273438	1451.8369140625	-1053.909057617188	-390.1944580078126	1133.119506835938	-1057.94091796875	-230.5077056884766	1371.937744140625	-1036.531982421875	-277.3574523925782	1388.680908203125	-1223.831787109375	-291.6448364257813	1182.148559570313	-1275.822387695313	-265.4110717773438	1154.8232421875	-1243.568115234375	-296.5413818359376	1113.31005859375	-1277.184692382813	-316.3433837890626	1059.947998046875	-1276.593139648438	-362.6528015136719	1057.491333007813	-1208.931518554688	-258.9800720214844	826.0456542968752	-1213.577392578125	-288.5460205078126	817.4271240234377	-1271.669799804688	-250.2860870361329	736.2866210937501	-1212.838012695313	-319.3199768066407	1382.181762695313	-874.4270629882815	-375.8241577148438	1190.56494140625	-799.359313964844	-334.6393737792969	1165.833984375	-788.2326660156252	-376.2881164550782	1120.861083984375	-788.5215454101565	-367.8267211914063	1060.5361328125	-778.9771728515627	-357.6419067382813	1039.122924804688	-858.0690917968752	-297.4650573730469	828.9922485351565	-741.7218017578126	-359.0967102050782	836.5971679687502	-716.5065307617189	-297.3214721679688	761.2150878906251	-695.2960815429689	-219.6365661621094	939.8198242187502	-1126.322143554688	-244.9191894531251	965.1734008789065	-912.086608886719	-394.3054199218751	1025.736694335938	-1044.387084960938	-400.2709350585939	994.8237915039065	-1069.02587890625	-409.0939941406251	999.4915771484377	-1013.574462890625	-309.1238403320313	782.6140747070315	-1179.842651367188	-293.2422790527344	701.9809570312501	-1168.0048828125	-241.9516906738282	700.4146728515626	-1153.633178710938	-328.8791809082032	655.8214111328126	-1151.59521484375	-347.4988098144532	497.2395324707032	-1112.546752929688	-318.2193908691407	499.7998657226564	-995.9573974609377	-318.7202453613282	360.0982360839844	-1030.763793945313	-341.1163024902344	301.1549987792969	-1092.985961914063	-312.1763916015626	307.3056030273438	-1055.683227539063	-326.6558837890626	233.7253723144532	-1016.742126464844	-383.9139709472657	105.8322219848633	-1056.482177734375	-356.1791992187501	122.0929794311524	-978.851257324219	-441.1683959960939	96.45684051513675	-1007.391906738281	-239.8963775634766	52.09957504272462	-993.7368164062502	-234.9113922119141	49.43101882934572	-1032.6826171875	-259.2176513671876	43.47606277465821	-1082.428344726563	-264.5442199707032	736.4410400390626	-808.113464355469	-209.8132781982422	696.5758056640626	-795.3660888671877	-177.1961364746094	707.7976684570314	-802.5037231445315	-211.1561584472657	613.2284545898439	-798.0286254882815	-203.6179504394532	569.9801025390626	-801.952819824219	-168.0462036132813	548.8024902343751	-909.7740478515627	-273.4600219726563	464.1161193847657	-834.807312011719	-378.5708007812501	492.0137939453126	-845.8862304687502	-359.1005554199219	449.1393127441407	-845.6729736328127	-381.4364013671876	414.3794860839845	-888.1912841796877	-534.9519653320314	405.8166809082032	-901.8485107421877	-488.6981811523439	390.4439086914064	-972.0579833984377	-560.2468261718751	450.7549438476564	-957.1905517578127	-502.0572814941407	253.7568664550782	-968.6871337890627	-511.4283142089845	246.3160247802735	-924.3508300781252	-555.3474121093751	263.8919677734376	-883.1331176757815	
1186	5.925	-186.0328979492188	1641.069946289063	-1004.640441894531	-309.2143249511719	1571.79443359375	-1122.364501953125	-318.2698974609376	1573.713989257813	-971.339782714844	-362.0158996582032	1451.908569335938	-1053.874755859375	-390.1913146972657	1133.1552734375	-1057.94580078125	-230.4193420410157	1371.943115234375	-1036.344360351563	-277.2327575683594	1388.734252929688	-1223.827514648438	-292.1114807128907	1182.270874023438	-1276.051879882813	-265.7866821289063	1154.761840820313	-1243.781616210938	-297.1671142578126	1113.531127929688	-1277.510620117188	-317.3539733886719	1060.218994140625	-1276.883911132813	-363.3973388671876	1057.935424804688	-1209.305786132813	-260.5899047851563	825.9871215820315	-1214.152221679688	-289.8329467773438	817.421081542969	-1272.108154296875	-252.1220245361329	736.0325317382814	-1213.489135742188	-319.6266174316407	1382.2998046875	-874.2985839843752	-376.9387817382813	1190.75048828125	-799.608581542969	-335.8607788085938	1166.001831054688	-788.365173339844	-377.6153869628907	1121.098388671875	-788.8664550781252	-369.5383911132813	1061.067626953125	-778.976013183594	-359.9831542968751	1039.552368164063	-858.3430175781252	-300.0473632812501	829.0267333984377	-741.6863403320314	-362.0522460937501	836.6437988281252	-716.9381713867189	-300.5495605468751	761.2621459960939	-695.2467651367189	-219.4893188476563	939.944519042969	-1126.182739257813	-244.9968414306641	965.2303466796877	-911.9691162109377	-394.2173156738282	1025.7412109375	-1044.390747070313	-400.0147399902345	994.820983886719	-1069.0009765625	-408.941375732422	999.6187133789065	-1013.526550292969	-308.7985839843751	783.0869750976565	-1179.466430664063	-292.6431884765626	702.1586303710939	-1167.69091796875	-241.5095825195313	700.4335327148439	-1153.431274414063	-328.7977294921876	655.8893432617189	-1151.46826171875	-347.1061096191407	497.3180541992189	-1112.489624023438	-317.7799377441407	499.813446044922	-996.0425415039065	-318.5993041992188	360.0458679199219	-1030.751953125	-340.9600219726563	301.1729431152344	-1092.955444335938	-312.0433654785157	307.2781677246094	-1055.632934570313	-326.5415954589844	233.7469787597657	-1016.770874023438	-383.8797302246094	105.8400573730469	-1056.492065429688	-356.2009582519532	122.1003875732422	-978.9495239257815	-441.1802978515626	96.49289703369143	-1007.385009765625	-239.9100494384766	52.12089920043947	-993.769226074219	-234.9122619628907	49.47015380859376	-1032.673950195313	-259.7520141601563	43.82049179077149	-1082.621459960938	-263.2984008789063	736.3304443359376	-807.586853027344	-209.6039581298829	696.7149047851564	-795.3380126953127	-177.0468292236328	707.9192504882814	-802.5842895507815	-210.8471832275391	613.3294067382814	-798.0327148437502	-203.2385864257813	570.0228271484376	-801.9909667968752	-167.5866394042969	549.0592041015626	-909.7990722656252	-272.9568786621094	463.8897399902345	-834.881286621094	-378.0768432617188	491.5114135742189	-845.9517822265627	-358.4626464843751	448.6209716796876	-845.6481933593752	-380.7388610839844	413.8301086425782	-888.1395263671877	-534.2176513671876	404.7859497070314	-901.5860595703127	-488.0770263671876	389.459197998047	-971.866638183594	-559.6901245117189	449.6122436523439	-956.9836425781252	-501.1638793945314	252.6519622802735	-968.740173339844	-510.2798156738282	245.3799591064454	-924.2725830078127	-554.2086791992189	262.8458557128907	-882.8528442382815	
1187	5.93	-185.7536926269532	1640.8837890625	-1004.178405761719	-308.8122558593751	1571.729858398438	-1122.2373046875	-318.2131652832032	1573.812377929688	-971.2937011718752	-362.0456237792969	1451.951782226563	-1053.893432617188	-390.0995178222657	1133.162719726563	-1057.948852539063	-230.4440155029297	1371.884765625	-1036.180786132813	-277.1390075683594	1388.798095703125	-1223.781127929688	-292.3580017089844	1182.3515625	-1276.154418945313	-266.0774536132813	1154.73486328125	-1244.014770507813	-297.6745910644532	1113.689453125	-1277.784545898438	-318.1155090332032	1060.498779296875	-1277.258666992188	-364.4676208496094	1057.201171875	-1209.664184570313	-261.6485900878907	826.0675048828127	-1214.590698242188	-291.1935424804688	817.6422119140627	-1272.565063476563	-253.4704132080079	736.1008911132814	-1214.194702148438	-319.9255981445313	1382.383056640625	-874.1794433593752	-378.1431884765626	1190.952880859375	-799.9897460937502	-337.0682373046876	1166.110473632813	-788.2965087890627	-378.8489990234376	1121.270141601563	-789.2861938476565	-371.1236877441407	1061.247314453125	-779.395202636719	-360.9150390625001	1039.932495117188	-858.592468261719	-302.7356262207032	828.9658813476565	-741.5061645507814	-364.9696655273438	836.8203735351565	-717.5144042968751	-303.8293762207032	760.9443969726564	-695.1506347656251	-219.3014068603516	940.0891113281252	-1126.091430664063	-245.0653228759766	965.2781372070315	-911.7934570312502	-394.1411132812501	1025.773315429688	-1044.372802734375	-399.8212890625001	994.785827636719	-1069.012329101563	-408.9737548828126	999.593444824219	-1013.519470214844	-308.3591003417969	783.0953369140627	-1179.31396484375	-291.8136291503907	702.1094360351564	-1167.475708007813	-241.0298767089844	700.5390625000001	-1153.173461914063	-328.0279235839844	655.5302124023439	-1151.43701171875	-346.7863464355469	497.3023071289064	-1112.408081054688	-317.4352416992188	499.8942871093751	-996.0816040039065	-318.4334411621094	360.0125122070313	-1030.814575195313	-340.8988647460938	301.1761474609376	-1092.924194335938	-311.8902282714844	307.3116760253907	-1055.633056640625	-326.4780578613282	233.7412567138672	-1016.764099121094	-383.8376159667969	105.8630523681641	-1056.502197265625	-356.1619262695313	122.0105133056641	-979.018493652344	-441.329803466797	96.57833099365237	-1007.471618652344	-239.9070129394532	52.14581680297853	-993.7792968750002	-234.8504333496094	49.46179580688478	-1032.687133789063	-259.8136291503907	43.81286621093751	-1082.643188476563	-263.6725769042969	736.2972412109376	-807.8160400390627	-209.462387084961	696.8579711914064	-795.3679199218752	-176.9624328613282	708.0320434570314	-802.6015625000002	-210.5172271728516	613.5167846679689	-797.9942016601565	-202.9468536376954	570.0346069335939	-802.0063476562502	-167.2822875976563	549.1759033203126	-909.8311157226565	-272.4407958984376	463.6077880859376	-834.8604125976565	-377.5585937500001	491.1407470703126	-845.9477539062502	-357.8453369140626	448.1400451660157	-845.5249633789065	-380.0575561523438	413.059295654297	-888.0796508789065	-533.3527832031251	403.7859802246095	-901.3706665039065	-487.1600646972657	388.3695678710939	-971.712341308594	-559.1402587890626	448.2870178222657	-956.841735839844	-499.779266357422	251.6693420410157	-968.2029418945315	-508.8513793945314	244.2979583740235	-923.8443603515627	-553.0536499023439	261.6763000488282	-882.5217285156252	
